<mxfile host="app.diagrams.net" agent="Mozilla/5.0 (Macintosh; Intel Mac OS X 10_15_7) AppleWebKit/537.36 (KHTML, like Gecko) Chrome/133.0.0.0 Safari/537.36" version="26.1.0">
  <diagram name="第 1 页" id="lUXOfogeEYyx6iQj3zQI">
    <mxGraphModel dx="1628" dy="1121" grid="1" gridSize="10" guides="1" tooltips="1" connect="1" arrows="1" fold="1" page="1" pageScale="1" pageWidth="827" pageHeight="1169" math="0" shadow="0">
      <root>
        <mxCell id="0" />
        <mxCell id="1" parent="0" />
        <mxCell id="qpfFihvUUbPKWQdW_QFY-84" value="&lt;b&gt;授权&lt;/b&gt;" style="shape=umlFrame;whiteSpace=wrap;html=1;pointerEvents=0;sketch=1;hachureGap=4;jiggle=2;curveFitting=1;fontFamily=Architects Daughter;fontSource=https%3A%2F%2Ffonts.googleapis.com%2Fcss%3Ffamily%3DArchitects%2BDaughter;fillColor=#dae8fc;strokeColor=#6c8ebf;strokeWidth=2;" vertex="1" parent="1">
          <mxGeometry x="120" y="1360" width="880" height="450" as="geometry" />
        </mxCell>
        <mxCell id="qpfFihvUUbPKWQdW_QFY-86" value="&lt;b&gt;访问&lt;/b&gt;" style="shape=umlFrame;whiteSpace=wrap;html=1;pointerEvents=0;sketch=1;hachureGap=4;jiggle=2;curveFitting=1;fontFamily=Architects Daughter;fontSource=https%3A%2F%2Ffonts.googleapis.com%2Fcss%3Ffamily%3DArchitects%2BDaughter;fillColor=#f8cecc;strokeColor=#b85450;strokeWidth=2;" vertex="1" parent="1">
          <mxGeometry x="120" y="1840" width="1080" height="160" as="geometry" />
        </mxCell>
        <mxCell id="qpfFihvUUbPKWQdW_QFY-30" value="" style="rounded=0;whiteSpace=wrap;html=1;sketch=1;hachureGap=4;jiggle=2;curveFitting=1;fontFamily=Architects Daughter;fontSource=https%3A%2F%2Ffonts.googleapis.com%2Fcss%3Ffamily%3DArchitects%2BDaughter;fillColor=none;strokeWidth=2;" vertex="1" parent="1">
          <mxGeometry x="140" y="260" width="160" height="740" as="geometry" />
        </mxCell>
        <mxCell id="qpfFihvUUbPKWQdW_QFY-8" style="edgeStyle=orthogonalEdgeStyle;rounded=0;sketch=1;hachureGap=4;jiggle=2;curveFitting=1;orthogonalLoop=1;jettySize=auto;html=1;exitX=1;exitY=0.5;exitDx=0;exitDy=0;entryX=0;entryY=0.5;entryDx=0;entryDy=0;fontFamily=Architects Daughter;fontSource=https%3A%2F%2Ffonts.googleapis.com%2Fcss%3Ffamily%3DArchitects%2BDaughter;strokeWidth=2;" edge="1" parent="1" source="qpfFihvUUbPKWQdW_QFY-1" target="qpfFihvUUbPKWQdW_QFY-2">
          <mxGeometry relative="1" as="geometry" />
        </mxCell>
        <mxCell id="qpfFihvUUbPKWQdW_QFY-1" value="&lt;span style=&quot;font-size: 16px;&quot;&gt;&lt;b&gt;访问应用&lt;/b&gt;&lt;/span&gt;" style="rounded=0;whiteSpace=wrap;html=1;sketch=1;hachureGap=4;jiggle=2;curveFitting=1;fontFamily=Architects Daughter;fontSource=https%3A%2F%2Ffonts.googleapis.com%2Fcss%3Ffamily%3DArchitects%2BDaughter;strokeWidth=2;fillColor=none;" vertex="1" parent="1">
          <mxGeometry x="160" y="280" width="120" height="60" as="geometry" />
        </mxCell>
        <mxCell id="qpfFihvUUbPKWQdW_QFY-9" style="edgeStyle=orthogonalEdgeStyle;rounded=0;sketch=1;hachureGap=4;jiggle=2;curveFitting=1;orthogonalLoop=1;jettySize=auto;html=1;exitX=1;exitY=0.5;exitDx=0;exitDy=0;entryX=0;entryY=0.5;entryDx=0;entryDy=0;fontFamily=Architects Daughter;fontSource=https%3A%2F%2Ffonts.googleapis.com%2Fcss%3Ffamily%3DArchitects%2BDaughter;strokeWidth=2;" edge="1" parent="1" source="qpfFihvUUbPKWQdW_QFY-2" target="qpfFihvUUbPKWQdW_QFY-3">
          <mxGeometry relative="1" as="geometry" />
        </mxCell>
        <mxCell id="qpfFihvUUbPKWQdW_QFY-2" value="&lt;span style=&quot;font-size: 16px;&quot;&gt;&lt;b&gt;跳转用户&lt;/b&gt;&lt;/span&gt;&lt;div&gt;&lt;span style=&quot;font-size: 16px;&quot;&gt;&lt;b&gt;授权链接&lt;/b&gt;&lt;/span&gt;&lt;/div&gt;" style="rounded=0;whiteSpace=wrap;html=1;sketch=1;hachureGap=4;jiggle=2;curveFitting=1;fontFamily=Architects Daughter;fontSource=https%3A%2F%2Ffonts.googleapis.com%2Fcss%3Ffamily%3DArchitects%2BDaughter;strokeWidth=2;fillColor=none;" vertex="1" parent="1">
          <mxGeometry x="360" y="280" width="120" height="60" as="geometry" />
        </mxCell>
        <mxCell id="qpfFihvUUbPKWQdW_QFY-10" style="edgeStyle=orthogonalEdgeStyle;rounded=0;sketch=1;hachureGap=4;jiggle=2;curveFitting=1;orthogonalLoop=1;jettySize=auto;html=1;exitX=0.5;exitY=1;exitDx=0;exitDy=0;entryX=0.5;entryY=0;entryDx=0;entryDy=0;fontFamily=Architects Daughter;fontSource=https%3A%2F%2Ffonts.googleapis.com%2Fcss%3Ffamily%3DArchitects%2BDaughter;strokeWidth=2;" edge="1" parent="1" source="qpfFihvUUbPKWQdW_QFY-3" target="qpfFihvUUbPKWQdW_QFY-4">
          <mxGeometry relative="1" as="geometry" />
        </mxCell>
        <mxCell id="qpfFihvUUbPKWQdW_QFY-3" value="&lt;b style=&quot;font-size: 16px; background-color: transparent; color: light-dark(rgb(0, 0, 0), rgb(255, 255, 255));&quot;&gt;平台校验&lt;/b&gt;&lt;div&gt;&lt;b style=&quot;font-size: 16px; background-color: transparent; color: light-dark(rgb(0, 0, 0), rgb(255, 255, 255));&quot;&gt;开发者信息&lt;/b&gt;&lt;/div&gt;" style="rounded=0;whiteSpace=wrap;html=1;sketch=1;hachureGap=4;jiggle=2;curveFitting=1;fontFamily=Architects Daughter;fontSource=https%3A%2F%2Ffonts.googleapis.com%2Fcss%3Ffamily%3DArchitects%2BDaughter;strokeWidth=2;fillColor=none;" vertex="1" parent="1">
          <mxGeometry x="560" y="280" width="120" height="60" as="geometry" />
        </mxCell>
        <mxCell id="qpfFihvUUbPKWQdW_QFY-11" style="edgeStyle=orthogonalEdgeStyle;rounded=0;sketch=1;hachureGap=4;jiggle=2;curveFitting=1;orthogonalLoop=1;jettySize=auto;html=1;exitX=0;exitY=0.5;exitDx=0;exitDy=0;fontFamily=Architects Daughter;fontSource=https%3A%2F%2Ffonts.googleapis.com%2Fcss%3Ffamily%3DArchitects%2BDaughter;strokeWidth=2;" edge="1" parent="1" source="qpfFihvUUbPKWQdW_QFY-4" target="qpfFihvUUbPKWQdW_QFY-5">
          <mxGeometry relative="1" as="geometry" />
        </mxCell>
        <mxCell id="qpfFihvUUbPKWQdW_QFY-4" value="&lt;span style=&quot;font-size: 16px;&quot;&gt;&lt;b&gt;打开官方&lt;/b&gt;&lt;/span&gt;&lt;div&gt;&lt;span style=&quot;font-size: 16px;&quot;&gt;&lt;b&gt;登录授权页面&lt;/b&gt;&lt;/span&gt;&lt;/div&gt;" style="rounded=0;whiteSpace=wrap;html=1;sketch=1;hachureGap=4;jiggle=2;curveFitting=1;fontFamily=Architects Daughter;fontSource=https%3A%2F%2Ffonts.googleapis.com%2Fcss%3Ffamily%3DArchitects%2BDaughter;strokeWidth=2;fillColor=none;" vertex="1" parent="1">
          <mxGeometry x="560" y="380" width="120" height="60" as="geometry" />
        </mxCell>
        <mxCell id="qpfFihvUUbPKWQdW_QFY-12" style="edgeStyle=orthogonalEdgeStyle;rounded=0;sketch=1;hachureGap=4;jiggle=2;curveFitting=1;orthogonalLoop=1;jettySize=auto;html=1;exitX=0.5;exitY=1;exitDx=0;exitDy=0;entryX=0;entryY=0.5;entryDx=0;entryDy=0;fontFamily=Architects Daughter;fontSource=https%3A%2F%2Ffonts.googleapis.com%2Fcss%3Ffamily%3DArchitects%2BDaughter;strokeWidth=2;" edge="1" parent="1" source="qpfFihvUUbPKWQdW_QFY-5" target="qpfFihvUUbPKWQdW_QFY-6">
          <mxGeometry relative="1" as="geometry" />
        </mxCell>
        <mxCell id="qpfFihvUUbPKWQdW_QFY-5" value="&lt;span style=&quot;font-size: 16px;&quot;&gt;&lt;b&gt;授权&lt;/b&gt;&lt;/span&gt;" style="rounded=0;whiteSpace=wrap;html=1;sketch=1;hachureGap=4;jiggle=2;curveFitting=1;fontFamily=Architects Daughter;fontSource=https%3A%2F%2Ffonts.googleapis.com%2Fcss%3Ffamily%3DArchitects%2BDaughter;strokeWidth=2;fillColor=none;" vertex="1" parent="1">
          <mxGeometry x="160" y="380" width="120" height="60" as="geometry" />
        </mxCell>
        <mxCell id="qpfFihvUUbPKWQdW_QFY-13" style="edgeStyle=orthogonalEdgeStyle;rounded=0;sketch=1;hachureGap=4;jiggle=2;curveFitting=1;orthogonalLoop=1;jettySize=auto;html=1;exitX=1;exitY=0.5;exitDx=0;exitDy=0;fontFamily=Architects Daughter;fontSource=https%3A%2F%2Ffonts.googleapis.com%2Fcss%3Ffamily%3DArchitects%2BDaughter;strokeWidth=2;" edge="1" parent="1" source="qpfFihvUUbPKWQdW_QFY-6" target="qpfFihvUUbPKWQdW_QFY-7">
          <mxGeometry relative="1" as="geometry" />
        </mxCell>
        <mxCell id="qpfFihvUUbPKWQdW_QFY-15" style="edgeStyle=orthogonalEdgeStyle;rounded=0;sketch=1;hachureGap=4;jiggle=2;curveFitting=1;orthogonalLoop=1;jettySize=auto;html=1;exitX=0.5;exitY=1;exitDx=0;exitDy=0;entryX=0.5;entryY=0;entryDx=0;entryDy=0;fontFamily=Architects Daughter;fontSource=https%3A%2F%2Ffonts.googleapis.com%2Fcss%3Ffamily%3DArchitects%2BDaughter;endSize=7;strokeWidth=2;" edge="1" parent="1" source="qpfFihvUUbPKWQdW_QFY-6" target="qpfFihvUUbPKWQdW_QFY-14">
          <mxGeometry relative="1" as="geometry" />
        </mxCell>
        <mxCell id="qpfFihvUUbPKWQdW_QFY-6" value="&lt;span style=&quot;font-size: 16px;&quot;&gt;&lt;b&gt;授权&lt;/b&gt;&lt;/span&gt;" style="rounded=0;whiteSpace=wrap;html=1;sketch=1;hachureGap=4;jiggle=2;curveFitting=1;fontFamily=Architects Daughter;fontSource=https%3A%2F%2Ffonts.googleapis.com%2Fcss%3Ffamily%3DArchitects%2BDaughter;strokeWidth=2;fillColor=none;" vertex="1" parent="1">
          <mxGeometry x="560" y="480" width="120" height="60" as="geometry" />
        </mxCell>
        <mxCell id="qpfFihvUUbPKWQdW_QFY-7" value="&lt;span style=&quot;font-size: 16px;&quot;&gt;&lt;b&gt;授权&lt;/b&gt;&lt;/span&gt;" style="rounded=0;whiteSpace=wrap;html=1;sketch=1;hachureGap=4;jiggle=2;curveFitting=1;fontFamily=Architects Daughter;fontSource=https%3A%2F%2Ffonts.googleapis.com%2Fcss%3Ffamily%3DArchitects%2BDaughter;strokeWidth=2;fillColor=none;" vertex="1" parent="1">
          <mxGeometry x="760" y="480" width="120" height="60" as="geometry" />
        </mxCell>
        <mxCell id="qpfFihvUUbPKWQdW_QFY-18" style="edgeStyle=orthogonalEdgeStyle;rounded=0;sketch=1;hachureGap=4;jiggle=2;curveFitting=1;orthogonalLoop=1;jettySize=auto;html=1;exitX=0.5;exitY=1;exitDx=0;exitDy=0;entryX=0;entryY=0.5;entryDx=0;entryDy=0;fontFamily=Architects Daughter;fontSource=https%3A%2F%2Ffonts.googleapis.com%2Fcss%3Ffamily%3DArchitects%2BDaughter;strokeWidth=2;" edge="1" parent="1" source="qpfFihvUUbPKWQdW_QFY-14" target="qpfFihvUUbPKWQdW_QFY-16">
          <mxGeometry relative="1" as="geometry" />
        </mxCell>
        <mxCell id="qpfFihvUUbPKWQdW_QFY-14" value="&lt;span style=&quot;font-size: 16px;&quot;&gt;&lt;b&gt;回调地址服务器&lt;/b&gt;&lt;/span&gt;" style="rounded=0;whiteSpace=wrap;html=1;sketch=1;hachureGap=4;jiggle=2;curveFitting=1;fontFamily=Architects Daughter;fontSource=https%3A%2F%2Ffonts.googleapis.com%2Fcss%3Ffamily%3DArchitects%2BDaughter;strokeWidth=2;fillColor=none;" vertex="1" parent="1">
          <mxGeometry x="360" y="585" width="120" height="60" as="geometry" />
        </mxCell>
        <mxCell id="qpfFihvUUbPKWQdW_QFY-19" style="edgeStyle=orthogonalEdgeStyle;rounded=0;sketch=1;hachureGap=4;jiggle=2;curveFitting=1;orthogonalLoop=1;jettySize=auto;html=1;exitX=1;exitY=0.5;exitDx=0;exitDy=0;entryX=0;entryY=0.5;entryDx=0;entryDy=0;fontFamily=Architects Daughter;fontSource=https%3A%2F%2Ffonts.googleapis.com%2Fcss%3Ffamily%3DArchitects%2BDaughter;strokeWidth=2;" edge="1" parent="1" source="qpfFihvUUbPKWQdW_QFY-16" target="qpfFihvUUbPKWQdW_QFY-17">
          <mxGeometry relative="1" as="geometry" />
        </mxCell>
        <mxCell id="qpfFihvUUbPKWQdW_QFY-16" value="&lt;span style=&quot;font-size: 16px;&quot;&gt;&lt;b&gt;获取Token&lt;/b&gt;&lt;/span&gt;" style="rounded=0;whiteSpace=wrap;html=1;sketch=1;hachureGap=4;jiggle=2;curveFitting=1;fontFamily=Architects Daughter;fontSource=https%3A%2F%2Ffonts.googleapis.com%2Fcss%3Ffamily%3DArchitects%2BDaughter;strokeWidth=2;fillColor=none;" vertex="1" parent="1">
          <mxGeometry x="560" y="680" width="120" height="60" as="geometry" />
        </mxCell>
        <mxCell id="qpfFihvUUbPKWQdW_QFY-21" style="edgeStyle=orthogonalEdgeStyle;rounded=0;sketch=1;hachureGap=4;jiggle=2;curveFitting=1;orthogonalLoop=1;jettySize=auto;html=1;exitX=0.5;exitY=1;exitDx=0;exitDy=0;entryX=0.5;entryY=0;entryDx=0;entryDy=0;fontFamily=Architects Daughter;fontSource=https%3A%2F%2Ffonts.googleapis.com%2Fcss%3Ffamily%3DArchitects%2BDaughter;strokeWidth=2;" edge="1" parent="1" source="qpfFihvUUbPKWQdW_QFY-17" target="qpfFihvUUbPKWQdW_QFY-20">
          <mxGeometry relative="1" as="geometry" />
        </mxCell>
        <mxCell id="qpfFihvUUbPKWQdW_QFY-17" value="&lt;span style=&quot;font-size: 16px;&quot;&gt;&lt;b&gt;获取Token&lt;/b&gt;&lt;/span&gt;" style="rounded=0;whiteSpace=wrap;html=1;sketch=1;hachureGap=4;jiggle=2;curveFitting=1;fontFamily=Architects Daughter;fontSource=https%3A%2F%2Ffonts.googleapis.com%2Fcss%3Ffamily%3DArchitects%2BDaughter;strokeWidth=2;fillColor=none;" vertex="1" parent="1">
          <mxGeometry x="760" y="680" width="120" height="60" as="geometry" />
        </mxCell>
        <mxCell id="qpfFihvUUbPKWQdW_QFY-24" style="edgeStyle=orthogonalEdgeStyle;rounded=0;sketch=1;hachureGap=4;jiggle=2;curveFitting=1;orthogonalLoop=1;jettySize=auto;html=1;exitX=1;exitY=0.5;exitDx=0;exitDy=0;entryX=0;entryY=0.5;entryDx=0;entryDy=0;fontFamily=Architects Daughter;fontSource=https%3A%2F%2Ffonts.googleapis.com%2Fcss%3Ffamily%3DArchitects%2BDaughter;strokeWidth=2;" edge="1" parent="1" source="qpfFihvUUbPKWQdW_QFY-20" target="qpfFihvUUbPKWQdW_QFY-22">
          <mxGeometry relative="1" as="geometry" />
        </mxCell>
        <mxCell id="qpfFihvUUbPKWQdW_QFY-20" value="&lt;span style=&quot;font-size: 16px;&quot;&gt;&lt;b&gt;API请求&lt;/b&gt;&lt;/span&gt;" style="rounded=0;whiteSpace=wrap;html=1;sketch=1;hachureGap=4;jiggle=2;curveFitting=1;fontFamily=Architects Daughter;fontSource=https%3A%2F%2Ffonts.googleapis.com%2Fcss%3Ffamily%3DArchitects%2BDaughter;strokeWidth=2;fillColor=none;" vertex="1" parent="1">
          <mxGeometry x="360" y="800" width="120" height="60" as="geometry" />
        </mxCell>
        <mxCell id="qpfFihvUUbPKWQdW_QFY-25" style="edgeStyle=orthogonalEdgeStyle;rounded=0;sketch=1;hachureGap=4;jiggle=2;curveFitting=1;orthogonalLoop=1;jettySize=auto;html=1;exitX=0.5;exitY=0;exitDx=0;exitDy=0;entryX=0;entryY=0.5;entryDx=0;entryDy=0;fontFamily=Architects Daughter;fontSource=https%3A%2F%2Ffonts.googleapis.com%2Fcss%3Ffamily%3DArchitects%2BDaughter;strokeWidth=2;" edge="1" parent="1" source="qpfFihvUUbPKWQdW_QFY-22" target="qpfFihvUUbPKWQdW_QFY-23">
          <mxGeometry relative="1" as="geometry" />
        </mxCell>
        <mxCell id="qpfFihvUUbPKWQdW_QFY-27" style="edgeStyle=orthogonalEdgeStyle;rounded=0;sketch=1;hachureGap=4;jiggle=2;curveFitting=1;orthogonalLoop=1;jettySize=auto;html=1;exitX=1;exitY=0.5;exitDx=0;exitDy=0;entryX=0;entryY=0.5;entryDx=0;entryDy=0;fontFamily=Architects Daughter;fontSource=https%3A%2F%2Ffonts.googleapis.com%2Fcss%3Ffamily%3DArchitects%2BDaughter;strokeWidth=2;" edge="1" parent="1" source="qpfFihvUUbPKWQdW_QFY-22" target="qpfFihvUUbPKWQdW_QFY-26">
          <mxGeometry relative="1" as="geometry" />
        </mxCell>
        <mxCell id="qpfFihvUUbPKWQdW_QFY-28" style="edgeStyle=orthogonalEdgeStyle;rounded=0;sketch=1;hachureGap=4;jiggle=2;curveFitting=1;orthogonalLoop=1;jettySize=auto;html=1;exitX=0.5;exitY=1;exitDx=0;exitDy=0;entryX=0.5;entryY=1;entryDx=0;entryDy=0;fontFamily=Architects Daughter;fontSource=https%3A%2F%2Ffonts.googleapis.com%2Fcss%3Ffamily%3DArchitects%2BDaughter;strokeWidth=2;" edge="1" parent="1" source="qpfFihvUUbPKWQdW_QFY-22" target="qpfFihvUUbPKWQdW_QFY-20">
          <mxGeometry relative="1" as="geometry" />
        </mxCell>
        <mxCell id="qpfFihvUUbPKWQdW_QFY-29" value="&lt;font style=&quot;font-size: 14px;&quot;&gt;&lt;b&gt;返回结果&lt;/b&gt;&lt;/font&gt;" style="edgeLabel;html=1;align=center;verticalAlign=middle;resizable=0;points=[];sketch=1;hachureGap=4;jiggle=2;curveFitting=1;fontFamily=Architects Daughter;fontSource=https%3A%2F%2Ffonts.googleapis.com%2Fcss%3Ffamily%3DArchitects%2BDaughter;" vertex="1" connectable="0" parent="qpfFihvUUbPKWQdW_QFY-28">
          <mxGeometry x="-0.0353" relative="1" as="geometry">
            <mxPoint x="24" y="-10" as="offset" />
          </mxGeometry>
        </mxCell>
        <mxCell id="qpfFihvUUbPKWQdW_QFY-22" value="&lt;span style=&quot;font-size: 16px;&quot;&gt;&lt;b&gt;API请求&lt;/b&gt;&lt;/span&gt;" style="rounded=0;whiteSpace=wrap;html=1;sketch=1;hachureGap=4;jiggle=2;curveFitting=1;fontFamily=Architects Daughter;fontSource=https%3A%2F%2Ffonts.googleapis.com%2Fcss%3Ffamily%3DArchitects%2BDaughter;strokeWidth=2;fillColor=none;" vertex="1" parent="1">
          <mxGeometry x="560" y="900" width="120" height="60" as="geometry" />
        </mxCell>
        <mxCell id="qpfFihvUUbPKWQdW_QFY-23" value="&lt;span style=&quot;font-size: 16px;&quot;&gt;&lt;b&gt;鉴权&lt;/b&gt;&lt;/span&gt;" style="rounded=0;whiteSpace=wrap;html=1;sketch=1;hachureGap=4;jiggle=2;curveFitting=1;fontFamily=Architects Daughter;fontSource=https%3A%2F%2Ffonts.googleapis.com%2Fcss%3Ffamily%3DArchitects%2BDaughter;strokeWidth=2;fillColor=none;" vertex="1" parent="1">
          <mxGeometry x="760" y="800" width="120" height="60" as="geometry" />
        </mxCell>
        <mxCell id="qpfFihvUUbPKWQdW_QFY-26" value="&lt;span style=&quot;font-size: 16px;&quot;&gt;&lt;b&gt;业务服务&lt;/b&gt;&lt;/span&gt;&lt;div&gt;&lt;span style=&quot;font-size: 16px;&quot;&gt;&lt;b&gt;处理请求&lt;/b&gt;&lt;/span&gt;&lt;/div&gt;" style="rounded=0;whiteSpace=wrap;html=1;sketch=1;hachureGap=4;jiggle=2;curveFitting=1;fontFamily=Architects Daughter;fontSource=https%3A%2F%2Ffonts.googleapis.com%2Fcss%3Ffamily%3DArchitects%2BDaughter;strokeWidth=2;fillColor=none;" vertex="1" parent="1">
          <mxGeometry x="960" y="900" width="120" height="60" as="geometry" />
        </mxCell>
        <mxCell id="qpfFihvUUbPKWQdW_QFY-31" value="" style="rounded=0;whiteSpace=wrap;html=1;sketch=1;hachureGap=4;jiggle=2;curveFitting=1;fontFamily=Architects Daughter;fontSource=https%3A%2F%2Ffonts.googleapis.com%2Fcss%3Ffamily%3DArchitects%2BDaughter;fillColor=none;strokeWidth=2;" vertex="1" parent="1">
          <mxGeometry x="340" y="260" width="160" height="740" as="geometry" />
        </mxCell>
        <mxCell id="qpfFihvUUbPKWQdW_QFY-32" value="" style="rounded=0;whiteSpace=wrap;html=1;sketch=1;hachureGap=4;jiggle=2;curveFitting=1;fontFamily=Architects Daughter;fontSource=https%3A%2F%2Ffonts.googleapis.com%2Fcss%3Ffamily%3DArchitects%2BDaughter;fillColor=none;strokeWidth=2;" vertex="1" parent="1">
          <mxGeometry x="540" y="260" width="160" height="740" as="geometry" />
        </mxCell>
        <mxCell id="qpfFihvUUbPKWQdW_QFY-33" value="" style="rounded=0;whiteSpace=wrap;html=1;sketch=1;hachureGap=4;jiggle=2;curveFitting=1;fontFamily=Architects Daughter;fontSource=https%3A%2F%2Ffonts.googleapis.com%2Fcss%3Ffamily%3DArchitects%2BDaughter;fillColor=none;strokeWidth=2;" vertex="1" parent="1">
          <mxGeometry x="740" y="260" width="160" height="740" as="geometry" />
        </mxCell>
        <mxCell id="qpfFihvUUbPKWQdW_QFY-34" value="&lt;font style=&quot;font-size: 18px;&quot;&gt;&lt;b&gt;商户&lt;/b&gt;&lt;/font&gt;" style="text;html=1;align=center;verticalAlign=middle;resizable=0;points=[];autosize=1;strokeColor=none;fillColor=none;fontFamily=Architects Daughter;fontSource=https%3A%2F%2Ffonts.googleapis.com%2Fcss%3Ffamily%3DArchitects%2BDaughter;" vertex="1" parent="1">
          <mxGeometry x="190" y="210" width="60" height="40" as="geometry" />
        </mxCell>
        <mxCell id="qpfFihvUUbPKWQdW_QFY-35" value="&lt;font style=&quot;font-size: 18px;&quot;&gt;&lt;b&gt;开发者应用&lt;/b&gt;&lt;/font&gt;" style="text;html=1;align=center;verticalAlign=middle;resizable=0;points=[];autosize=1;strokeColor=none;fillColor=none;fontFamily=Architects Daughter;fontSource=https%3A%2F%2Ffonts.googleapis.com%2Fcss%3Ffamily%3DArchitects%2BDaughter;" vertex="1" parent="1">
          <mxGeometry x="365" y="210" width="110" height="40" as="geometry" />
        </mxCell>
        <mxCell id="qpfFihvUUbPKWQdW_QFY-36" value="&lt;font style=&quot;font-size: 18px;&quot;&gt;&lt;b&gt;网关&lt;/b&gt;&lt;/font&gt;" style="text;html=1;align=center;verticalAlign=middle;resizable=0;points=[];autosize=1;strokeColor=none;fillColor=none;fontFamily=Architects Daughter;fontSource=https%3A%2F%2Ffonts.googleapis.com%2Fcss%3Ffamily%3DArchitects%2BDaughter;" vertex="1" parent="1">
          <mxGeometry x="590" y="210" width="60" height="40" as="geometry" />
        </mxCell>
        <mxCell id="qpfFihvUUbPKWQdW_QFY-37" value="&lt;font style=&quot;font-size: 18px;&quot;&gt;&lt;b&gt;用户中心&lt;/b&gt;&lt;/font&gt;&lt;div&gt;&lt;font style=&quot;font-size: 18px;&quot;&gt;&lt;b&gt;（转转/员工/采货侠）&lt;/b&gt;&lt;/font&gt;&lt;/div&gt;" style="text;html=1;align=center;verticalAlign=middle;resizable=0;points=[];autosize=1;strokeColor=none;fillColor=none;fontFamily=Architects Daughter;fontSource=https%3A%2F%2Ffonts.googleapis.com%2Fcss%3Ffamily%3DArchitects%2BDaughter;" vertex="1" parent="1">
          <mxGeometry x="720" y="200" width="200" height="60" as="geometry" />
        </mxCell>
        <mxCell id="qpfFihvUUbPKWQdW_QFY-42" value="" style="shape=umlLifeline;perimeter=lifelinePerimeter;whiteSpace=wrap;html=1;container=1;dropTarget=0;collapsible=0;recursiveResize=0;outlineConnect=0;portConstraint=eastwest;newEdgeStyle={&quot;curved&quot;:0,&quot;rounded&quot;:0};participant=umlActor;sketch=1;hachureGap=4;jiggle=2;curveFitting=1;fontFamily=Architects Daughter;fontSource=https%3A%2F%2Ffonts.googleapis.com%2Fcss%3Ffamily%3DArchitects%2BDaughter;strokeWidth=2;" vertex="1" parent="1">
          <mxGeometry x="190" y="1290" width="20" height="750" as="geometry" />
        </mxCell>
        <mxCell id="qpfFihvUUbPKWQdW_QFY-43" value="&lt;b&gt;&lt;font style=&quot;font-size: 14px;&quot;&gt;开发者应用&lt;/font&gt;&lt;/b&gt;" style="shape=umlLifeline;perimeter=lifelinePerimeter;whiteSpace=wrap;html=1;container=1;dropTarget=0;collapsible=0;recursiveResize=0;outlineConnect=0;portConstraint=eastwest;newEdgeStyle={&quot;curved&quot;:0,&quot;rounded&quot;:0};sketch=1;hachureGap=4;jiggle=2;curveFitting=1;fontFamily=Architects Daughter;fontSource=https%3A%2F%2Ffonts.googleapis.com%2Fcss%3Ffamily%3DArchitects%2BDaughter;strokeWidth=2;fillColor=none;" vertex="1" parent="1">
          <mxGeometry x="320" y="1280" width="80" height="760" as="geometry" />
        </mxCell>
        <mxCell id="qpfFihvUUbPKWQdW_QFY-44" value="&lt;b&gt;&lt;font style=&quot;font-size: 14px;&quot;&gt;转转APP&lt;/font&gt;&lt;/b&gt;" style="shape=umlLifeline;perimeter=lifelinePerimeter;whiteSpace=wrap;html=1;container=1;dropTarget=0;collapsible=0;recursiveResize=0;outlineConnect=0;portConstraint=eastwest;newEdgeStyle={&quot;curved&quot;:0,&quot;rounded&quot;:0};sketch=1;hachureGap=4;jiggle=2;curveFitting=1;fontFamily=Architects Daughter;fontSource=https%3A%2F%2Ffonts.googleapis.com%2Fcss%3Ffamily%3DArchitects%2BDaughter;strokeWidth=2;fillColor=none;" vertex="1" parent="1">
          <mxGeometry x="520" y="1280" width="80" height="760" as="geometry" />
        </mxCell>
        <mxCell id="qpfFihvUUbPKWQdW_QFY-45" value="&lt;b&gt;&lt;font style=&quot;font-size: 14px;&quot;&gt;网关&lt;/font&gt;&lt;/b&gt;" style="shape=umlLifeline;perimeter=lifelinePerimeter;whiteSpace=wrap;html=1;container=1;dropTarget=0;collapsible=0;recursiveResize=0;outlineConnect=0;portConstraint=eastwest;newEdgeStyle={&quot;curved&quot;:0,&quot;rounded&quot;:0};sketch=1;hachureGap=4;jiggle=2;curveFitting=1;fontFamily=Architects Daughter;fontSource=https%3A%2F%2Ffonts.googleapis.com%2Fcss%3Ffamily%3DArchitects%2BDaughter;strokeWidth=2;fillColor=none;" vertex="1" parent="1">
          <mxGeometry x="720" y="1280" width="80" height="760" as="geometry" />
        </mxCell>
        <mxCell id="qpfFihvUUbPKWQdW_QFY-46" value="&lt;b&gt;&lt;font style=&quot;font-size: 14px;&quot;&gt;用户中心&lt;/font&gt;&lt;/b&gt;&lt;div&gt;&lt;b&gt;&lt;font style=&quot;font-size: 14px;&quot;&gt;（zzuser/员工/转转通/采货侠）&lt;/font&gt;&lt;/b&gt;&lt;/div&gt;" style="shape=umlLifeline;perimeter=lifelinePerimeter;whiteSpace=wrap;html=1;container=1;dropTarget=0;collapsible=0;recursiveResize=0;outlineConnect=0;portConstraint=eastwest;newEdgeStyle={&quot;curved&quot;:0,&quot;rounded&quot;:0};sketch=1;hachureGap=4;jiggle=2;curveFitting=1;fontFamily=Architects Daughter;fontSource=https%3A%2F%2Ffonts.googleapis.com%2Fcss%3Ffamily%3DArchitects%2BDaughter;strokeWidth=2;fillColor=none;" vertex="1" parent="1">
          <mxGeometry x="850" y="1280" width="210" height="760" as="geometry" />
        </mxCell>
        <mxCell id="qpfFihvUUbPKWQdW_QFY-47" value="&lt;b&gt;&lt;font style=&quot;font-size: 14px;&quot;&gt;业务服务&lt;/font&gt;&lt;/b&gt;" style="shape=umlLifeline;perimeter=lifelinePerimeter;whiteSpace=wrap;html=1;container=1;dropTarget=0;collapsible=0;recursiveResize=0;outlineConnect=0;portConstraint=eastwest;newEdgeStyle={&quot;curved&quot;:0,&quot;rounded&quot;:0};sketch=1;hachureGap=4;jiggle=2;curveFitting=1;fontFamily=Architects Daughter;fontSource=https%3A%2F%2Ffonts.googleapis.com%2Fcss%3Ffamily%3DArchitects%2BDaughter;strokeWidth=2;fillColor=none;" vertex="1" parent="1">
          <mxGeometry x="1120" y="1280" width="80" height="760" as="geometry" />
        </mxCell>
        <mxCell id="qpfFihvUUbPKWQdW_QFY-48" value="" style="html=1;verticalAlign=bottom;startArrow=oval;startFill=1;endArrow=block;startSize=8;curved=0;rounded=0;sketch=1;hachureGap=4;jiggle=2;curveFitting=1;fontFamily=Architects Daughter;fontSource=https%3A%2F%2Ffonts.googleapis.com%2Fcss%3Ffamily%3DArchitects%2BDaughter;strokeWidth=2;" edge="1" parent="1">
          <mxGeometry x="-1" y="-150" width="60" relative="1" as="geometry">
            <mxPoint x="201" y="1400" as="sourcePoint" />
            <mxPoint x="360" y="1400" as="targetPoint" />
            <mxPoint x="-141" y="-100" as="offset" />
          </mxGeometry>
        </mxCell>
        <mxCell id="qpfFihvUUbPKWQdW_QFY-50" value="&lt;font style=&quot;font-size: 12px;&quot;&gt;&lt;b&gt;访问应用&lt;/b&gt;&lt;/font&gt;" style="edgeLabel;html=1;align=center;verticalAlign=middle;resizable=0;points=[];sketch=1;hachureGap=4;jiggle=2;curveFitting=1;fontFamily=Architects Daughter;fontSource=https%3A%2F%2Ffonts.googleapis.com%2Fcss%3Ffamily%3DArchitects%2BDaughter;" vertex="1" connectable="0" parent="qpfFihvUUbPKWQdW_QFY-48">
          <mxGeometry x="-0.1321" y="4" relative="1" as="geometry">
            <mxPoint x="10" y="-8" as="offset" />
          </mxGeometry>
        </mxCell>
        <mxCell id="qpfFihvUUbPKWQdW_QFY-51" value="" style="html=1;verticalAlign=bottom;startArrow=oval;startFill=1;endArrow=block;startSize=8;curved=0;rounded=0;sketch=1;hachureGap=4;jiggle=2;curveFitting=1;fontFamily=Architects Daughter;fontSource=https%3A%2F%2Ffonts.googleapis.com%2Fcss%3Ffamily%3DArchitects%2BDaughter;strokeWidth=2;" edge="1" parent="1" target="qpfFihvUUbPKWQdW_QFY-44">
          <mxGeometry x="-1" y="-150" width="60" relative="1" as="geometry">
            <mxPoint x="365" y="1420" as="sourcePoint" />
            <mxPoint x="524" y="1420" as="targetPoint" />
            <mxPoint x="-141" y="-100" as="offset" />
          </mxGeometry>
        </mxCell>
        <mxCell id="qpfFihvUUbPKWQdW_QFY-52" value="&lt;span style=&quot;font-size: 12px;&quot;&gt;&lt;b&gt;跳转用户授权链接&lt;/b&gt;&lt;/span&gt;" style="edgeLabel;html=1;align=center;verticalAlign=middle;resizable=0;points=[];sketch=1;hachureGap=4;jiggle=2;curveFitting=1;fontFamily=Architects Daughter;fontSource=https%3A%2F%2Ffonts.googleapis.com%2Fcss%3Ffamily%3DArchitects%2BDaughter;" vertex="1" connectable="0" parent="qpfFihvUUbPKWQdW_QFY-51">
          <mxGeometry x="-0.1321" y="4" relative="1" as="geometry">
            <mxPoint x="11" y="-10" as="offset" />
          </mxGeometry>
        </mxCell>
        <mxCell id="qpfFihvUUbPKWQdW_QFY-56" value="" style="html=1;verticalAlign=bottom;endArrow=open;dashed=1;endSize=8;curved=0;rounded=0;sketch=1;hachureGap=4;jiggle=2;curveFitting=1;fontFamily=Architects Daughter;fontSource=https%3A%2F%2Ffonts.googleapis.com%2Fcss%3Ffamily%3DArchitects%2BDaughter;strokeWidth=2;" edge="1" parent="1">
          <mxGeometry x="-0.1667" y="-10" relative="1" as="geometry">
            <mxPoint x="560" y="1460" as="sourcePoint" />
            <mxPoint x="200" y="1460" as="targetPoint" />
            <mxPoint as="offset" />
          </mxGeometry>
        </mxCell>
        <mxCell id="qpfFihvUUbPKWQdW_QFY-57" value="&lt;span style=&quot;font-size: 12px;&quot;&gt;&lt;b&gt;返回登录授权页面&lt;/b&gt;&lt;/span&gt;" style="edgeLabel;html=1;align=center;verticalAlign=middle;resizable=0;points=[];sketch=1;hachureGap=4;jiggle=2;curveFitting=1;fontFamily=Architects Daughter;fontSource=https%3A%2F%2Ffonts.googleapis.com%2Fcss%3Ffamily%3DArchitects%2BDaughter;" vertex="1" connectable="0" parent="1">
          <mxGeometry x="460" y="1450" as="geometry" />
        </mxCell>
        <mxCell id="qpfFihvUUbPKWQdW_QFY-61" value="" style="html=1;verticalAlign=bottom;startArrow=oval;startFill=1;endArrow=block;startSize=8;curved=0;rounded=0;sketch=1;hachureGap=4;jiggle=2;curveFitting=1;fontFamily=Architects Daughter;fontSource=https%3A%2F%2Ffonts.googleapis.com%2Fcss%3Ffamily%3DArchitects%2BDaughter;strokeWidth=2;" edge="1" parent="1" target="qpfFihvUUbPKWQdW_QFY-44">
          <mxGeometry x="-1" y="-150" width="60" relative="1" as="geometry">
            <mxPoint x="206" y="1520" as="sourcePoint" />
            <mxPoint x="365" y="1520" as="targetPoint" />
            <mxPoint x="-141" y="-100" as="offset" />
          </mxGeometry>
        </mxCell>
        <mxCell id="qpfFihvUUbPKWQdW_QFY-62" value="&lt;span style=&quot;font-size: 12px;&quot;&gt;&lt;b&gt;授权&lt;/b&gt;&lt;/span&gt;" style="edgeLabel;html=1;align=center;verticalAlign=middle;resizable=0;points=[];sketch=1;hachureGap=4;jiggle=2;curveFitting=1;fontFamily=Architects Daughter;fontSource=https%3A%2F%2Ffonts.googleapis.com%2Fcss%3Ffamily%3DArchitects%2BDaughter;" vertex="1" connectable="0" parent="qpfFihvUUbPKWQdW_QFY-61">
          <mxGeometry x="-0.1321" y="4" relative="1" as="geometry">
            <mxPoint x="-79" y="-6" as="offset" />
          </mxGeometry>
        </mxCell>
        <mxCell id="qpfFihvUUbPKWQdW_QFY-64" value="" style="html=1;verticalAlign=bottom;startArrow=oval;startFill=1;endArrow=block;startSize=8;curved=0;rounded=0;sketch=1;hachureGap=4;jiggle=2;curveFitting=1;fontFamily=Architects Daughter;fontSource=https%3A%2F%2Ffonts.googleapis.com%2Fcss%3Ffamily%3DArchitects%2BDaughter;strokeWidth=2;" edge="1" parent="1" target="qpfFihvUUbPKWQdW_QFY-45">
          <mxGeometry x="-1" y="-150" width="60" relative="1" as="geometry">
            <mxPoint x="561" y="1540" as="sourcePoint" />
            <mxPoint x="720" y="1540" as="targetPoint" />
            <mxPoint x="-141" y="-100" as="offset" />
          </mxGeometry>
        </mxCell>
        <mxCell id="qpfFihvUUbPKWQdW_QFY-65" value="&lt;font style=&quot;font-size: 12px;&quot;&gt;&lt;b&gt;授权&lt;/b&gt;&lt;/font&gt;" style="edgeLabel;html=1;align=center;verticalAlign=middle;resizable=0;points=[];sketch=1;hachureGap=4;jiggle=2;curveFitting=1;fontFamily=Architects Daughter;fontSource=https%3A%2F%2Ffonts.googleapis.com%2Fcss%3Ffamily%3DArchitects%2BDaughter;" vertex="1" connectable="0" parent="qpfFihvUUbPKWQdW_QFY-64">
          <mxGeometry x="-0.1321" y="4" relative="1" as="geometry">
            <mxPoint x="10" y="-8" as="offset" />
          </mxGeometry>
        </mxCell>
        <mxCell id="qpfFihvUUbPKWQdW_QFY-66" value="" style="html=1;verticalAlign=bottom;startArrow=oval;startFill=1;endArrow=block;startSize=8;curved=0;rounded=0;sketch=1;hachureGap=4;jiggle=2;curveFitting=1;fontFamily=Architects Daughter;fontSource=https%3A%2F%2Ffonts.googleapis.com%2Fcss%3Ffamily%3DArchitects%2BDaughter;strokeWidth=2;" edge="1" parent="1">
          <mxGeometry x="-1" y="-150" width="60" relative="1" as="geometry">
            <mxPoint x="760" y="1560" as="sourcePoint" />
            <mxPoint x="958" y="1560" as="targetPoint" />
            <mxPoint x="-141" y="-100" as="offset" />
          </mxGeometry>
        </mxCell>
        <mxCell id="qpfFihvUUbPKWQdW_QFY-67" value="&lt;font style=&quot;font-size: 12px;&quot;&gt;&lt;b&gt;授权&lt;/b&gt;&lt;/font&gt;" style="edgeLabel;html=1;align=center;verticalAlign=middle;resizable=0;points=[];sketch=1;hachureGap=4;jiggle=2;curveFitting=1;fontFamily=Architects Daughter;fontSource=https%3A%2F%2Ffonts.googleapis.com%2Fcss%3Ffamily%3DArchitects%2BDaughter;" vertex="1" connectable="0" parent="qpfFihvUUbPKWQdW_QFY-66">
          <mxGeometry x="-0.1321" y="4" relative="1" as="geometry">
            <mxPoint x="10" y="-8" as="offset" />
          </mxGeometry>
        </mxCell>
        <mxCell id="qpfFihvUUbPKWQdW_QFY-68" value="" style="html=1;verticalAlign=bottom;endArrow=open;dashed=1;endSize=8;curved=0;rounded=0;sketch=1;hachureGap=4;jiggle=2;curveFitting=1;fontFamily=Architects Daughter;fontSource=https%3A%2F%2Ffonts.googleapis.com%2Fcss%3Ffamily%3DArchitects%2BDaughter;strokeWidth=2;" edge="1" parent="1" target="qpfFihvUUbPKWQdW_QFY-43">
          <mxGeometry x="-0.1667" y="-10" relative="1" as="geometry">
            <mxPoint x="960" y="1600" as="sourcePoint" />
            <mxPoint x="600" y="1600" as="targetPoint" />
            <mxPoint as="offset" />
          </mxGeometry>
        </mxCell>
        <mxCell id="qpfFihvUUbPKWQdW_QFY-69" value="&lt;font style=&quot;font-size: 12px;&quot;&gt;&lt;b&gt;返回code，跳转授权回调地址&lt;/b&gt;&lt;/font&gt;" style="edgeLabel;html=1;align=center;verticalAlign=middle;resizable=0;points=[];sketch=1;hachureGap=4;jiggle=2;curveFitting=1;fontFamily=Architects Daughter;fontSource=https%3A%2F%2Ffonts.googleapis.com%2Fcss%3Ffamily%3DArchitects%2BDaughter;" vertex="1" connectable="0" parent="1">
          <mxGeometry x="860" y="1590" as="geometry" />
        </mxCell>
        <mxCell id="qpfFihvUUbPKWQdW_QFY-70" value="" style="html=1;verticalAlign=bottom;startArrow=oval;startFill=1;endArrow=block;startSize=8;curved=0;rounded=0;sketch=1;hachureGap=4;jiggle=2;curveFitting=1;fontFamily=Architects Daughter;fontSource=https%3A%2F%2Ffonts.googleapis.com%2Fcss%3Ffamily%3DArchitects%2BDaughter;strokeWidth=2;" edge="1" parent="1" target="qpfFihvUUbPKWQdW_QFY-45">
          <mxGeometry x="-1" y="-150" width="60" relative="1" as="geometry">
            <mxPoint x="360" y="1720" as="sourcePoint" />
            <mxPoint x="558" y="1720" as="targetPoint" />
            <mxPoint x="-141" y="-100" as="offset" />
          </mxGeometry>
        </mxCell>
        <mxCell id="qpfFihvUUbPKWQdW_QFY-71" value="&lt;font style=&quot;font-size: 12px;&quot;&gt;&lt;b&gt;根据code换取AccessToken&lt;/b&gt;&lt;/font&gt;" style="edgeLabel;html=1;align=center;verticalAlign=middle;resizable=0;points=[];sketch=1;hachureGap=4;jiggle=2;curveFitting=1;fontFamily=Architects Daughter;fontSource=https%3A%2F%2Ffonts.googleapis.com%2Fcss%3Ffamily%3DArchitects%2BDaughter;" vertex="1" connectable="0" parent="qpfFihvUUbPKWQdW_QFY-70">
          <mxGeometry x="-0.1321" y="4" relative="1" as="geometry">
            <mxPoint x="-73" y="-8" as="offset" />
          </mxGeometry>
        </mxCell>
        <mxCell id="qpfFihvUUbPKWQdW_QFY-72" value="" style="html=1;verticalAlign=bottom;startArrow=oval;startFill=1;endArrow=block;startSize=8;curved=0;rounded=0;sketch=1;hachureGap=4;jiggle=2;curveFitting=1;fontFamily=Architects Daughter;fontSource=https%3A%2F%2Ffonts.googleapis.com%2Fcss%3Ffamily%3DArchitects%2BDaughter;strokeWidth=2;" edge="1" parent="1">
          <mxGeometry x="-1" y="-150" width="60" relative="1" as="geometry">
            <mxPoint x="762" y="1740" as="sourcePoint" />
            <mxPoint x="960" y="1740" as="targetPoint" />
            <mxPoint x="-141" y="-100" as="offset" />
          </mxGeometry>
        </mxCell>
        <mxCell id="qpfFihvUUbPKWQdW_QFY-73" value="&lt;font style=&quot;font-size: 12px;&quot;&gt;&lt;b&gt;根据code换取AccessToken&lt;/b&gt;&lt;/font&gt;" style="edgeLabel;html=1;align=center;verticalAlign=middle;resizable=0;points=[];sketch=1;hachureGap=4;jiggle=2;curveFitting=1;fontFamily=Architects Daughter;fontSource=https%3A%2F%2Ffonts.googleapis.com%2Fcss%3Ffamily%3DArchitects%2BDaughter;" vertex="1" connectable="0" parent="qpfFihvUUbPKWQdW_QFY-72">
          <mxGeometry x="-0.1321" y="4" relative="1" as="geometry">
            <mxPoint x="10" y="-8" as="offset" />
          </mxGeometry>
        </mxCell>
        <mxCell id="qpfFihvUUbPKWQdW_QFY-74" value="" style="html=1;verticalAlign=bottom;endArrow=open;dashed=1;endSize=8;curved=0;rounded=0;sketch=1;hachureGap=4;jiggle=2;curveFitting=1;fontFamily=Architects Daughter;fontSource=https%3A%2F%2Ffonts.googleapis.com%2Fcss%3Ffamily%3DArchitects%2BDaughter;strokeWidth=2;" edge="1" parent="1">
          <mxGeometry x="-0.1667" y="-10" relative="1" as="geometry">
            <mxPoint x="960" y="1780" as="sourcePoint" />
            <mxPoint x="360" y="1780" as="targetPoint" />
            <mxPoint as="offset" />
          </mxGeometry>
        </mxCell>
        <mxCell id="qpfFihvUUbPKWQdW_QFY-75" value="&lt;font style=&quot;font-size: 12px;&quot;&gt;&lt;b&gt;返回Token，授权完成&lt;/b&gt;&lt;/font&gt;" style="edgeLabel;html=1;align=center;verticalAlign=middle;resizable=0;points=[];sketch=1;hachureGap=4;jiggle=2;curveFitting=1;fontFamily=Architects Daughter;fontSource=https%3A%2F%2Ffonts.googleapis.com%2Fcss%3Ffamily%3DArchitects%2BDaughter;" vertex="1" connectable="0" parent="1">
          <mxGeometry x="860" y="1770" as="geometry" />
        </mxCell>
        <mxCell id="qpfFihvUUbPKWQdW_QFY-76" value="" style="html=1;verticalAlign=bottom;startArrow=oval;startFill=1;endArrow=block;startSize=8;curved=0;rounded=0;sketch=1;hachureGap=4;jiggle=2;curveFitting=1;fontFamily=Architects Daughter;fontSource=https%3A%2F%2Ffonts.googleapis.com%2Fcss%3Ffamily%3DArchitects%2BDaughter;strokeWidth=2;" edge="1" parent="1">
          <mxGeometry x="-1" y="-150" width="60" relative="1" as="geometry">
            <mxPoint x="361" y="1880" as="sourcePoint" />
            <mxPoint x="760" y="1880" as="targetPoint" />
            <mxPoint x="-141" y="-100" as="offset" />
          </mxGeometry>
        </mxCell>
        <mxCell id="qpfFihvUUbPKWQdW_QFY-77" value="&lt;font style=&quot;font-size: 12px;&quot;&gt;&lt;b&gt;携带Tocken访问API&lt;/b&gt;&lt;/font&gt;" style="edgeLabel;html=1;align=center;verticalAlign=middle;resizable=0;points=[];sketch=1;hachureGap=4;jiggle=2;curveFitting=1;fontFamily=Architects Daughter;fontSource=https%3A%2F%2Ffonts.googleapis.com%2Fcss%3Ffamily%3DArchitects%2BDaughter;" vertex="1" connectable="0" parent="qpfFihvUUbPKWQdW_QFY-76">
          <mxGeometry x="-0.1321" y="4" relative="1" as="geometry">
            <mxPoint x="-74" y="-8" as="offset" />
          </mxGeometry>
        </mxCell>
        <mxCell id="qpfFihvUUbPKWQdW_QFY-78" value="" style="html=1;verticalAlign=bottom;startArrow=oval;startFill=1;endArrow=block;startSize=8;curved=0;rounded=0;sketch=1;hachureGap=4;jiggle=2;curveFitting=1;fontFamily=Architects Daughter;fontSource=https%3A%2F%2Ffonts.googleapis.com%2Fcss%3Ffamily%3DArchitects%2BDaughter;strokeWidth=2;" edge="1" parent="1">
          <mxGeometry x="-1" y="-150" width="60" relative="1" as="geometry">
            <mxPoint x="762" y="1900" as="sourcePoint" />
            <mxPoint x="960" y="1900" as="targetPoint" />
            <mxPoint x="-141" y="-100" as="offset" />
          </mxGeometry>
        </mxCell>
        <mxCell id="qpfFihvUUbPKWQdW_QFY-79" value="&lt;font style=&quot;font-size: 12px;&quot;&gt;&lt;b&gt;鉴权&lt;/b&gt;&lt;/font&gt;" style="edgeLabel;html=1;align=center;verticalAlign=middle;resizable=0;points=[];sketch=1;hachureGap=4;jiggle=2;curveFitting=1;fontFamily=Architects Daughter;fontSource=https%3A%2F%2Ffonts.googleapis.com%2Fcss%3Ffamily%3DArchitects%2BDaughter;" vertex="1" connectable="0" parent="qpfFihvUUbPKWQdW_QFY-78">
          <mxGeometry x="-0.1321" y="4" relative="1" as="geometry">
            <mxPoint x="10" y="-8" as="offset" />
          </mxGeometry>
        </mxCell>
        <mxCell id="qpfFihvUUbPKWQdW_QFY-80" value="" style="html=1;verticalAlign=bottom;startArrow=oval;startFill=1;endArrow=block;startSize=8;curved=0;rounded=0;sketch=1;hachureGap=4;jiggle=2;curveFitting=1;fontFamily=Architects Daughter;fontSource=https%3A%2F%2Ffonts.googleapis.com%2Fcss%3Ffamily%3DArchitects%2BDaughter;strokeWidth=2;" edge="1" parent="1" target="qpfFihvUUbPKWQdW_QFY-47">
          <mxGeometry x="-1" y="-150" width="60" relative="1" as="geometry">
            <mxPoint x="762" y="1920" as="sourcePoint" />
            <mxPoint x="960" y="1920" as="targetPoint" />
            <mxPoint x="-141" y="-100" as="offset" />
          </mxGeometry>
        </mxCell>
        <mxCell id="qpfFihvUUbPKWQdW_QFY-81" value="&lt;font style=&quot;font-size: 12px;&quot;&gt;&lt;b&gt;业务处理&lt;/b&gt;&lt;/font&gt;" style="edgeLabel;html=1;align=center;verticalAlign=middle;resizable=0;points=[];sketch=1;hachureGap=4;jiggle=2;curveFitting=1;fontFamily=Architects Daughter;fontSource=https%3A%2F%2Ffonts.googleapis.com%2Fcss%3Ffamily%3DArchitects%2BDaughter;" vertex="1" connectable="0" parent="qpfFihvUUbPKWQdW_QFY-80">
          <mxGeometry x="-0.1321" y="4" relative="1" as="geometry">
            <mxPoint x="126" y="-9" as="offset" />
          </mxGeometry>
        </mxCell>
        <mxCell id="qpfFihvUUbPKWQdW_QFY-82" value="" style="html=1;verticalAlign=bottom;endArrow=open;dashed=1;endSize=8;curved=0;rounded=0;sketch=1;hachureGap=4;jiggle=2;curveFitting=1;fontFamily=Architects Daughter;fontSource=https%3A%2F%2Ffonts.googleapis.com%2Fcss%3Ffamily%3DArchitects%2BDaughter;strokeWidth=2;" edge="1" parent="1" target="qpfFihvUUbPKWQdW_QFY-43">
          <mxGeometry x="-0.1667" y="-10" relative="1" as="geometry">
            <mxPoint x="1160" y="1960" as="sourcePoint" />
            <mxPoint x="560" y="1960" as="targetPoint" />
            <mxPoint as="offset" />
          </mxGeometry>
        </mxCell>
        <mxCell id="qpfFihvUUbPKWQdW_QFY-83" value="&lt;font style=&quot;font-size: 12px;&quot;&gt;&lt;b&gt;返回结果&lt;/b&gt;&lt;/font&gt;" style="edgeLabel;html=1;align=center;verticalAlign=middle;resizable=0;points=[];sketch=1;hachureGap=4;jiggle=2;curveFitting=1;fontFamily=Architects Daughter;fontSource=https%3A%2F%2Ffonts.googleapis.com%2Fcss%3Ffamily%3DArchitects%2BDaughter;" vertex="1" connectable="0" parent="1">
          <mxGeometry x="1060" y="1950" as="geometry" />
        </mxCell>
      </root>
    </mxGraphModel>
  </diagram>
</mxfile>
